<svg width="auto" height="28" viewBox="0 0 122 21" fill="none" xmlns="http://www.w3.org/2000/svg">
<g clip-path="url(#clip0)">
<path d="M15.9853 8.64988C15.9853 9.41186 15.9853 10.1705 15.9853 10.9358C15.9853 11.7012 15.9853 12.4598 16.0049 13.2218C16.0403 13.8562 15.9215 14.4898 15.6591 15.0659C15.3874 15.6204 14.9216 16.0502 14.3542 16.2697C13.7196 16.5315 13.1438 16.6332 12.5713 16.5115C11.9988 16.3898 11.4295 16.0463 10.8015 15.4194C9.69014 14.3022 8.58204 13.179 7.47721 12.0496C6.37237 10.9203 5.26917 9.79369 4.1676 8.66989C3.99486 8.46882 3.80063 8.28817 3.58854 8.13133C3.47343 8.0561 3.3421 8.01071 3.20595 7.99909C3.0698 7.98747 2.93294 8.00997 2.80721 8.06463C2.6658 8.10964 2.53724 8.18919 2.43265 8.29639C2.32806 8.40359 2.25059 8.53522 2.20695 8.67989C2.13589 8.96569 2.10676 9.2607 2.1205 9.55526C2.1205 10.8002 2.1243 12.0469 2.13192 13.2951C2.13192 14.5423 2.13192 15.7962 2.11071 17.0367C2.09784 17.3491 2.15068 17.6607 2.26567 17.9504C2.3761 18.2193 2.57601 18.4396 2.83005 18.5723C2.95906 18.6424 3.10218 18.681 3.24821 18.685C3.39423 18.6891 3.53919 18.6585 3.67173 18.5957C3.94553 18.467 4.19379 18.2878 4.40411 18.0671C4.90977 17.5647 5.41271 17.0589 5.91293 16.5498C6.41315 16.0407 6.90522 15.5261 7.38913 15.0059C7.48293 14.8936 7.59749 14.8013 7.72625 14.7343C7.85501 14.6674 7.99543 14.6271 8.13946 14.6157C8.41124 14.617 8.67583 14.705 8.89631 14.8675C9.1051 15.0075 9.20134 15.3093 9.19481 15.6278C9.19619 15.9464 9.08299 16.2543 8.87674 16.4931C8.27647 17.1134 7.6811 17.742 7.08247 18.3623C6.48384 18.9825 5.87052 19.5961 5.2409 20.1847C4.77852 20.6334 4.18484 20.9146 3.55102 20.985C2.91368 21.0354 2.2744 20.9171 1.69477 20.6415C1.16429 20.4281 0.712917 20.0495 0.404523 19.5594C0.115652 19.0495 -0.0246965 18.4658 -2.98489e-06 17.8771C0.0146774 16.3398 0.0130462 14.8024 0.0114151 13.2635C0.00978394 11.7245 0.0114151 10.1889 0.0114151 8.64988C-0.00143023 8.03843 0.123005 7.4321 0.375163 6.87747C0.641541 6.33101 1.10272 5.90972 1.66377 5.70032C2.2455 5.45567 2.88463 5.39074 3.50209 5.51357C4.13839 5.66618 4.71519 6.01065 5.15771 6.50232C6.27668 7.66947 7.40544 8.82884 8.54398 9.98043C9.68253 11.132 10.8178 12.2858 11.9498 13.4419C12.1042 13.6143 12.2815 13.7636 12.4767 13.8854C12.5747 13.9432 12.684 13.9782 12.7968 13.988C12.9095 13.9978 13.023 13.9821 13.1292 13.9421C13.3339 13.8795 13.5196 13.7647 13.6691 13.6086C13.8209 13.4224 13.8969 13.1836 13.8811 12.9417C13.8648 11.5361 13.8648 10.1372 13.8648 8.73825C13.8648 7.33933 13.8648 5.93875 13.8648 4.53983C13.8751 4.3285 13.8423 4.11728 13.7686 3.91957C13.722 3.81928 13.6566 3.72935 13.5759 3.65496C13.4953 3.58057 13.4012 3.52317 13.2988 3.48606C13.0999 3.38987 12.8827 3.33976 12.6626 3.33933C12.4362 3.35546 12.2204 3.44414 12.0461 3.59277C11.4299 4.08745 10.8498 4.62744 10.3105 5.20845C9.76409 5.77868 9.2307 6.36393 8.6598 6.91082C8.44741 7.14502 8.16528 7.30094 7.85727 7.35434C7.72178 7.36206 7.58637 7.33798 7.4614 7.28393C7.33643 7.22988 7.22522 7.14731 7.1363 7.04254C7.03114 6.93804 6.94886 6.81193 6.89487 6.67254C6.84089 6.53314 6.81643 6.38363 6.82312 6.23387C6.84454 5.91106 6.98365 5.60822 7.21296 5.38519C7.79039 4.79605 8.36673 4.20692 8.94199 3.61778C9.51724 3.02865 10.0963 2.44396 10.6792 1.86372C11.0443 1.51656 11.4843 1.26203 11.9634 1.12069C12.4425 0.979349 12.9475 0.955149 13.4374 1.05005C13.9292 1.12087 14.3979 1.30862 14.8059 1.59819C15.2138 1.88777 15.5496 2.2711 15.7863 2.71741C15.8589 2.86107 15.9137 3.01342 15.9494 3.17093C15.9842 3.33016 16.0006 3.493 15.9984 3.65613C15.9918 4.48648 15.9918 5.32016 15.9984 6.15717C16.0049 6.99419 16.0005 7.82509 15.9853 8.64988Z" fill="#1F2937"/>
</g>
<path d="M20.17 13V4.072H22.204L22.384 5.584C22.66 5.056 23.056 4.636 23.572 4.324C24.1 4.012 24.718 3.856 25.426 3.856C26.53 3.856 27.388 4.204 28 4.9C28.612 5.596 28.918 6.616 28.918 7.96V13H26.614V8.176C26.614 7.408 26.458 6.82 26.146 6.412C25.834 6.004 25.348 5.8 24.688 5.8C24.04 5.8 23.506 6.028 23.086 6.484C22.678 6.94 22.474 7.576 22.474 8.392V13H20.17ZM35.4592 13.216C34.5592 13.216 33.7612 13.024 33.0652 12.64C32.3692 12.256 31.8232 11.716 31.4272 11.02C31.0312 10.324 30.8332 9.52 30.8332 8.608C30.8332 7.684 31.0252 6.862 31.4092 6.142C31.8052 5.422 32.3452 4.864 33.0292 4.468C33.7252 4.06 34.5412 3.856 35.4772 3.856C36.3532 3.856 37.1272 4.048 37.7992 4.432C38.4712 4.816 38.9932 5.344 39.3652 6.016C39.7492 6.676 39.9412 7.414 39.9412 8.23C39.9412 8.362 39.9352 8.5 39.9232 8.644C39.9232 8.788 39.9172 8.938 39.9052 9.094H33.1192C33.1672 9.79 33.4072 10.336 33.8392 10.732C34.2832 11.128 34.8172 11.326 35.4412 11.326C35.9092 11.326 36.2992 11.224 36.6112 11.02C36.9352 10.804 37.1752 10.528 37.3312 10.192H39.6712C39.5032 10.756 39.2212 11.272 38.8252 11.74C38.4412 12.196 37.9612 12.556 37.3852 12.82C36.8212 13.084 36.1792 13.216 35.4592 13.216ZM35.4772 5.728C34.9132 5.728 34.4152 5.89 33.9832 6.214C33.5512 6.526 33.2752 7.006 33.1552 7.654H37.6012C37.5652 7.066 37.3492 6.598 36.9532 6.25C36.5572 5.902 36.0652 5.728 35.4772 5.728ZM46.217 13.216C45.317 13.216 44.519 13.024 43.823 12.64C43.127 12.256 42.581 11.716 42.185 11.02C41.789 10.324 41.591 9.52 41.591 8.608C41.591 7.684 41.783 6.862 42.167 6.142C42.563 5.422 43.103 4.864 43.787 4.468C44.483 4.06 45.299 3.856 46.235 3.856C47.111 3.856 47.885 4.048 48.557 4.432C49.229 4.816 49.751 5.344 50.123 6.016C50.507 6.676 50.699 7.414 50.699 8.23C50.699 8.362 50.693 8.5 50.681 8.644C50.681 8.788 50.675 8.938 50.663 9.094H43.877C43.925 9.79 44.165 10.336 44.597 10.732C45.041 11.128 45.575 11.326 46.199 11.326C46.667 11.326 47.057 11.224 47.369 11.02C47.693 10.804 47.933 10.528 48.089 10.192H50.429C50.261 10.756 49.979 11.272 49.583 11.74C49.199 12.196 48.719 12.556 48.143 12.82C47.579 13.084 46.937 13.216 46.217 13.216ZM46.235 5.728C45.671 5.728 45.173 5.89 44.741 6.214C44.309 6.526 44.033 7.006 43.913 7.654H48.359C48.323 7.066 48.107 6.598 47.711 6.25C47.315 5.902 46.823 5.728 46.235 5.728ZM56.4566 13C55.5206 13 54.7706 12.772 54.2066 12.316C53.6426 11.86 53.3606 11.05 53.3606 9.886V5.998H51.8306V4.072H53.3606L53.6306 1.678H55.6646V4.072H58.0766V5.998H55.6646V9.904C55.6646 10.336 55.7546 10.636 55.9346 10.804C56.1266 10.96 56.4506 11.038 56.9066 11.038H58.0226V13H56.4566ZM64.1103 13.216C63.2463 13.216 62.4663 13.018 61.7703 12.622C61.0863 12.226 60.5403 11.68 60.1323 10.984C59.7363 10.276 59.5383 9.46 59.5383 8.536C59.5383 7.612 59.7423 6.802 60.1503 6.106C60.5583 5.398 61.1043 4.846 61.7883 4.45C62.4843 4.054 63.2643 3.856 64.1283 3.856C64.9803 3.856 65.7483 4.054 66.4323 4.45C67.1283 4.846 67.6743 5.398 68.0703 6.106C68.4783 6.802 68.6823 7.612 68.6823 8.536C68.6823 9.46 68.4783 10.276 68.0703 10.984C67.6743 11.68 67.1283 12.226 66.4323 12.622C65.7363 13.018 64.9623 13.216 64.1103 13.216ZM64.1103 11.218C64.7103 11.218 65.2323 10.996 65.6763 10.552C66.1203 10.096 66.3423 9.424 66.3423 8.536C66.3423 7.648 66.1203 6.982 65.6763 6.538C65.2323 6.082 64.7163 5.854 64.1283 5.854C63.5163 5.854 62.9883 6.082 62.5443 6.538C62.1123 6.982 61.8963 7.648 61.8963 8.536C61.8963 9.424 62.1123 10.096 62.5443 10.552C62.9883 10.996 63.5103 11.218 64.1103 11.218ZM70.7963 13V0.399999H79.0223V2.254H73.1003V5.71H78.4823V7.51H73.1003V11.146H79.0223V13H70.7963ZM85.2525 13.216C84.4125 13.216 83.6625 13.012 83.0025 12.604C82.3425 12.196 81.8205 11.638 81.4365 10.93C81.0525 10.222 80.8605 9.418 80.8605 8.518C80.8605 7.618 81.0525 6.82 81.4365 6.124C81.8205 5.416 82.3425 4.864 83.0025 4.468C83.6625 4.06 84.4125 3.856 85.2525 3.856C85.9245 3.856 86.5125 3.982 87.0165 4.234C87.5205 4.486 87.9285 4.84 88.2405 5.296V0.0399995H90.5445V13H88.4925L88.2405 11.722C87.9525 12.118 87.5685 12.466 87.0885 12.766C86.6205 13.066 86.0085 13.216 85.2525 13.216ZM85.7385 11.2C86.4825 11.2 87.0885 10.954 87.5565 10.462C88.0365 9.958 88.2765 9.316 88.2765 8.536C88.2765 7.756 88.0365 7.12 87.5565 6.628C87.0885 6.124 86.4825 5.872 85.7385 5.872C85.0065 5.872 84.4005 6.118 83.9205 6.61C83.4405 7.102 83.2005 7.738 83.2005 8.518C83.2005 9.298 83.4405 9.94 83.9205 10.444C84.4005 10.948 85.0065 11.2 85.7385 11.2ZM94.1327 2.686C93.7127 2.686 93.3647 2.56 93.0887 2.308C92.8247 2.056 92.6927 1.738 92.6927 1.354C92.6927 0.97 92.8247 0.657999 93.0887 0.417999C93.3647 0.165999 93.7127 0.0399995 94.1327 0.0399995C94.5527 0.0399995 94.8947 0.165999 95.1587 0.417999C95.4347 0.657999 95.5727 0.97 95.5727 1.354C95.5727 1.738 95.4347 2.056 95.1587 2.308C94.8947 2.56 94.5527 2.686 94.1327 2.686ZM92.9807 13V4.072H95.2847V13H92.9807ZM101.668 13C100.732 13 99.9815 12.772 99.4175 12.316C98.8535 11.86 98.5715 11.05 98.5715 9.886V5.998H97.0415V4.072H98.5715L98.8415 1.678H100.876V4.072H103.288V5.998H100.876V9.904C100.876 10.336 100.966 10.636 101.146 10.804C101.338 10.96 101.662 11.038 102.118 11.038H103.234V13H101.668ZM109.321 13.216C108.457 13.216 107.677 13.018 106.981 12.622C106.297 12.226 105.751 11.68 105.343 10.984C104.947 10.276 104.749 9.46 104.749 8.536C104.749 7.612 104.953 6.802 105.361 6.106C105.769 5.398 106.315 4.846 106.999 4.45C107.695 4.054 108.475 3.856 109.339 3.856C110.191 3.856 110.959 4.054 111.643 4.45C112.339 4.846 112.885 5.398 113.281 6.106C113.689 6.802 113.893 7.612 113.893 8.536C113.893 9.46 113.689 10.276 113.281 10.984C112.885 11.68 112.339 12.226 111.643 12.622C110.947 13.018 110.173 13.216 109.321 13.216ZM109.321 11.218C109.921 11.218 110.443 10.996 110.887 10.552C111.331 10.096 111.553 9.424 111.553 8.536C111.553 7.648 111.331 6.982 110.887 6.538C110.443 6.082 109.927 5.854 109.339 5.854C108.727 5.854 108.199 6.082 107.755 6.538C107.323 6.982 107.107 7.648 107.107 8.536C107.107 9.424 107.323 10.096 107.755 10.552C108.199 10.996 108.721 11.218 109.321 11.218ZM115.953 13V4.072H118.005L118.221 5.746C118.545 5.17 118.983 4.714 119.535 4.378C120.099 4.03 120.759 3.856 121.515 3.856V6.286H120.867C120.363 6.286 119.913 6.364 119.517 6.52C119.121 6.676 118.809 6.946 118.581 7.33C118.365 7.714 118.257 8.248 118.257 8.932V13H115.953Z" fill="#1F2937"/>
<defs>
<clipPath id="clip0">
<rect y="1" width="16" height="20" fill="white"/>
</clipPath>
</defs>
</svg>
